# xmcd
#
# Track frame offsets: 
#        150
#        14258
#        30633
#        47367
#        64347
#        81325
#        95276
#        113049
#        130969
#        145988
#        163452
#        181222
#        196537
#        210901
#        227434
#        237121
#        251707
#        265726
#        281369
#        308572
#
# Disc length: 4440 seconds
#
# Revision: 1
# Processed by: cddbd v1.5.2PL0 Copyright (c) Steve Scherf et al.
# Submitted via: ExactAudioCopy v0.99pb5
#
DISCID=05115614
DTITLE=Atomic Kitten - Ladies night  [Japanese edition]
DYEAR=2004
DGENRE=Pop
TTITLE0=Ladies night
TTITLE1=Be with you
TTITLE2=Don't go breaking my heart
TTITLE3=If you come to me
TTITLE4=Believer
TTITLE5=Everything goes around
TTITLE6=Somebody like you
TTITLE7=Nothing in the world
TTITLE8=Always be my baby
TTITLE9=I won't be there
TTITLE10=Never get over you
TTITLE11=Don't you know
TTITLE12=Loving you
TTITLE13=Don't let me down
TTITLE14=Someone like me
TTITLE15=Eternal flame
TTITLE16=Whole again
TTITLE17=The tide is hight (Get the feeling)
TTITLE18=Good times
TTITLE19=[Copy protection crap]
EXTD=
EXTT0=
EXTT1=
EXTT2=
EXTT3=
EXTT4=
EXTT5=
EXTT6=
EXTT7=
EXTT8=
EXTT9=
EXTT10=
EXTT11=
EXTT12=
EXTT13=
EXTT14=
EXTT15=
EXTT16=
EXTT17=
EXTT18=
EXTT19=
PLAYORDER=
